<?xml version="1.0" standalone="no"?>
<!DOCTYPE svg PUBLIC "-//W3C//DTD SVG 20010904//EN"
 "http://www.w3.org/TR/2001/REC-SVG-20010904/DTD/svg10.dtd">
<svg version="1.0" xmlns="http://www.w3.org/2000/svg"
 width="1024.000000pt" height="1024.000000pt" viewBox="0 0 1024.000000 1024.000000"
 preserveAspectRatio="xMidYMid meet">
<metadata>
Created by potrace 1.16, written by Peter Selinger 2001-2019
</metadata>
<g transform="translate(0.000000,1024.000000) scale(0.100000,-0.100000)"
fill="#000000" stroke="none">
<path d="M5658 9803 c7 -3 16 -2 19 1 4 3 -2 6 -13 5 -11 0 -14 -3 -6 -6z"/>
<path d="M5420 9771 c0 -6 4 -13 10 -16 6 -3 7 1 4 9 -7 18 -14 21 -14 7z"/>
<path d="M5453 9726 c1 -11 9 -21 17 -23 10 -3 11 -2 4 4 -6 4 -14 15 -17 23
-5 11 -6 9 -4 -4z"/>
<path d="M6158 9713 c6 -2 18 -2 25 0 6 3 1 5 -13 5 -14 0 -19 -2 -12 -5z"/>
<path d="M6228 9693 c7 -3 16 -2 19 1 4 3 -2 6 -13 5 -11 0 -14 -3 -6 -6z"/>
<path d="M5500 9665 c0 -5 5 -17 10 -25 5 -8 10 -10 10 -5 0 6 -5 17 -10 25
-5 8 -10 11 -10 5z"/>
<path d="M6448 9633 c7 -3 16 -2 19 1 4 3 -2 6 -13 5 -11 0 -14 -3 -6 -6z"/>
<path d="M5530 9615 c0 -5 5 -17 10 -25 5 -8 10 -10 10 -5 0 6 -5 17 -10 25
-5 8 -10 11 -10 5z"/>
<path d="M6538 9603 c7 -3 16 -2 19 1 4 3 -2 6 -13 5 -11 0 -14 -3 -6 -6z"/>
<path d="M5560 9573 c0 -15 19 -37 26 -31 3 4 -1 14 -10 23 -9 9 -16 13 -16 8z"/>
<path d="M6638 9573 c7 -3 16 -2 19 1 4 3 -2 6 -13 5 -11 0 -14 -3 -6 -6z"/>
<path d="M5595 9531 c-5 -9 77 -139 95 -151 4 -3 11 -16 15 -29 5 -18 10 -20
18 -11 9 10 9 14 -1 17 -6 3 -10 9 -6 14 3 5 1 9 -4 9 -6 0 -13 11 -16 25 -4
17 -11 23 -23 18 -11 -4 -14 -3 -9 6 5 7 -1 20 -15 32 -12 10 -18 19 -14 19 4
0 -2 9 -14 19 -13 11 -20 25 -16 30 3 6 4 11 1 11 -3 0 -7 -4 -11 -9z"/>
<path d="M3967 9431 c3 -11 11 -22 19 -25 11 -4 11 0 -2 19 -20 30 -24 31 -17
6z"/>
<path d="M4020 9361 c0 -6 4 -13 10 -16 6 -3 7 1 4 9 -7 18 -14 21 -14 7z"/>
<path d="M5736 9331 c-10 -16 6 -42 21 -37 10 4 13 1 9 -12 -4 -12 6 -31 28
-55 18 -20 31 -39 28 -41 -2 -3 4 -16 15 -30 14 -17 24 -22 34 -15 13 8 5 13
-15 10 -5 -1 -6 6 -2 15 5 12 2 15 -10 10 -12 -4 -15 -2 -11 9 4 8 -3 21 -15
29 -12 9 -17 19 -13 27 5 8 4 10 -3 5 -7 -4 -12 -1 -12 8 0 9 -4 16 -10 16 -5
0 -7 7 -3 16 4 10 -2 17 -16 21 -13 3 -20 11 -17 19 6 16 0 19 -8 5z"/>
<path d="M4072 9286 c7 -8 15 -12 17 -11 5 6 -10 25 -20 25 -5 0 -4 -6 3 -14z"/>
<path d="M4190 9135 c0 -5 5 -17 10 -25 5 -8 10 -10 10 -5 0 6 -5 17 -10 25
-5 8 -10 11 -10 5z"/>
<path d="M5871 9119 c-1 -9 8 -26 19 -39 11 -13 20 -27 20 -33 0 -5 6 -7 13
-4 7 3 13 -5 13 -19 1 -13 9 -30 17 -38 13 -14 16 -14 21 0 3 8 2 12 -4 9 -6
-3 -10 1 -10 9 0 9 -5 16 -11 16 -5 0 -7 5 -4 10 9 14 -14 42 -28 33 -6 -4 -8
0 -4 11 4 10 3 15 -3 11 -6 -3 -10 3 -10 15 0 12 -4 19 -9 16 -5 -4 -12 0 -14
6 -4 9 -6 7 -6 -3z"/>
<path d="M5975 8960 c-3 -5 -2 -10 4 -10 5 0 13 5 16 10 3 6 2 10 -4 10 -5 0
-13 -4 -16 -10z"/>
<path d="M5995 8940 c-3 -6 3 -21 13 -35 16 -20 21 -22 26 -9 4 10 2 13 -6 8
-8 -5 -9 -2 -5 10 6 14 3 17 -9 12 -12 -4 -15 -2 -10 9 6 17 0 20 -9 5z"/>
<path d="M4366 8887 c3 -10 9 -15 12 -12 3 3 0 11 -7 18 -10 9 -11 8 -5 -6z"/>
<path d="M2245 8870 c-3 -6 1 -7 9 -4 18 7 21 14 7 14 -6 0 -13 -4 -16 -10z"/>
<path d="M4390 8856 c0 -8 4 -17 9 -20 5 -4 7 3 4 14 -6 23 -13 26 -13 6z"/>
<path d="M6055 8850 c-3 -5 -1 -10 4 -10 6 0 11 5 11 10 0 6 -2 10 -4 10 -3 0
-8 -4 -11 -10z"/>
<path d="M8000 8846 c0 -2 7 -7 16 -10 8 -3 12 -2 9 4 -6 10 -25 14 -25 6z"/>
<path d="M6070 8825 c0 -17 17 -38 26 -32 5 3 10 -6 10 -19 1 -13 9 -31 18
-39 9 -9 16 -21 16 -27 0 -5 7 -7 16 -4 8 3 12 2 9 -4 -3 -5 3 -23 14 -40 11
-19 22 -27 25 -21 4 6 3 11 -3 11 -6 0 -8 7 -5 15 4 9 0 15 -10 15 -10 0 -13
6 -9 16 4 10 -2 17 -16 21 -14 3 -20 11 -17 20 3 8 1 11 -4 8 -6 -3 -10 1 -10
9 0 9 -4 16 -10 16 -5 0 -7 7 -4 15 4 9 -1 18 -12 22 -11 3 -22 11 -26 17 -5
7 -8 7 -8 1z"/>
<path d="M2165 8810 c-3 -6 1 -7 9 -4 18 7 21 14 7 14 -6 0 -13 -4 -16 -10z"/>
<path d="M4420 8812 c0 -6 7 -18 16 -26 8 -9 12 -21 8 -27 -4 -8 -3 -9 4 -5 7
4 12 1 12 -8 0 -9 5 -16 11 -16 8 0 8 -4 2 -12 -6 -7 -13 -21 -16 -31 -6 -15
-1 -17 28 -15 38 2 43 9 20 32 -8 8 -15 19 -15 25 0 5 -6 16 -13 23 -7 7 -22
26 -35 42 -12 16 -22 24 -22 18z"/>
<path d="M2100 8760 c-9 -6 -10 -10 -3 -10 6 0 15 5 18 10 8 12 4 12 -15 0z"/>
<path d="M4398 8653 c6 -2 18 -2 25 0 6 3 1 5 -13 5 -14 0 -19 -2 -12 -5z"/>
<path d="M4348 8643 c7 -3 16 -2 19 1 4 3 -2 6 -13 5 -11 0 -14 -3 -6 -6z"/>
<path d="M4278 8623 c6 -2 18 -2 25 0 6 3 1 5 -13 5 -14 0 -19 -2 -12 -5z"/>
<path d="M4941 8614 c0 -11 3 -14 6 -6 3 7 2 16 -1 19 -3 4 -6 -2 -5 -13z"/>
<path d="M6210 8621 c0 -20 13 -41 21 -35 5 3 9 -1 9 -8 0 -23 16 -39 33 -32
24 9 21 23 -3 17 -15 -4 -19 -2 -14 10 3 10 -2 18 -16 22 -13 4 -19 12 -16 21
3 8 1 14 -4 14 -6 0 -10 -4 -10 -9z"/>
<path d="M1885 8579 c-16 -16 -25 -29 -20 -29 11 0 60 49 54 54 -2 2 -17 -9
-34 -25z"/>
<path d="M4158 8593 c6 -2 18 -2 25 0 6 3 1 5 -13 5 -14 0 -19 -2 -12 -5z"/>
<path d="M4925 8580 c3 -5 8 -10 11 -10 2 0 4 5 4 10 0 6 -5 10 -11 10 -5 0
-7 -4 -4 -10z"/>
<path d="M4058 8563 c7 -3 16 -2 19 1 4 3 -2 6 -13 5 -11 0 -14 -3 -6 -6z"/>
<path d="M4911 8554 c0 -11 3 -14 6 -6 3 7 2 16 -1 19 -3 4 -6 -2 -5 -13z"/>
<path d="M6300 8540 c-13 -9 -13 -10 0 -10 8 0 22 5 30 10 13 9 13 10 0 10 -8
0 -22 -5 -30 -10z"/>
<path d="M1782 8484 c-24 -24 -40 -44 -37 -44 10 0 89 80 84 84 -2 2 -23 -16
-47 -40z"/>
<path d="M4890 8519 c0 -5 5 -7 10 -4 6 3 10 8 10 11 0 2 -4 4 -10 4 -5 0 -10
-5 -10 -11z"/>
<path d="M6378 8503 c7 -3 16 -2 19 1 4 3 -2 6 -13 5 -11 0 -14 -3 -6 -6z"/>
<path d="M4881 8484 c0 -11 3 -14 6 -6 3 7 2 16 -1 19 -3 4 -6 -2 -5 -13z"/>
<path d="M3838 8483 c7 -3 16 -2 19 1 4 3 -2 6 -13 5 -11 0 -14 -3 -6 -6z"/>
<path d="M4856 8444 c-9 -35 -4 -39 11 -8 6 13 8 26 3 29 -4 3 -11 -7 -14 -21z"/>
<path d="M6488 8453 c7 -3 16 -2 19 1 4 3 -2 6 -13 5 -11 0 -14 -3 -6 -6z"/>
<path d="M8477 8439 c7 -7 15 -10 18 -7 3 3 -2 9 -12 12 -14 6 -15 5 -6 -5z"/>
<path d="M3688 8423 c7 -3 16 -2 19 1 4 3 -2 6 -13 5 -11 0 -14 -3 -6 -6z"/>
<path d="M1656 8359 c-21 -22 -37 -41 -35 -43 2 -2 23 16 47 40 24 24 40 44
35 44 -4 -1 -25 -19 -47 -41z"/>
<path d="M5211 8385 c1 -19 18 -51 18 -35 0 8 -4 22 -9 30 -5 8 -9 11 -9 5z"/>
<path d="M6665 8380 c-3 -5 -1 -10 4 -10 6 0 11 5 11 10 0 6 -2 10 -4 10 -3 0
-8 -4 -11 -10z"/>
<path d="M8550 8371 c0 -6 4 -13 10 -16 6 -3 7 1 4 9 -7 18 -14 21 -14 7z"/>
<path d="M3548 8363 c7 -3 16 -2 19 1 4 3 -2 6 -13 5 -11 0 -14 -3 -6 -6z"/>
<path d="M4796 8314 c-4 -14 -5 -28 -3 -31 3 -2 8 8 11 23 4 14 5 28 3 31 -3
2 -8 -8 -11 -23z"/>
<path d="M3430 8310 c-18 -12 -2 -12 25 0 13 6 15 9 5 9 -8 0 -22 -4 -30 -9z"/>
<path d="M1597 8303 c-4 -3 -7 -13 -7 -21 0 -18 13 -7 16 13 2 17 1 18 -9 8z"/>
<path d="M3376 8281 c-4 -5 3 -7 14 -4 23 6 26 13 6 13 -8 0 -17 -4 -20 -9z"/>
<path d="M1571 8275 c-1 -5 -20 -29 -42 -52 -51 -54 -40 -57 13 -3 22 22 38
45 35 52 -3 7 -6 9 -6 3z"/>
<path d="M4771 8264 c0 -11 3 -14 6 -6 3 7 2 16 -1 19 -3 4 -6 -2 -5 -13z"/>
<path d="M5270 8265 c0 -5 5 -17 10 -25 5 -8 10 -10 10 -5 0 6 -5 17 -10 25
-5 8 -10 11 -10 5z"/>
<path d="M4750 8230 c0 -5 5 -10 10 -10 6 0 10 5 10 10 0 6 -4 10 -10 10 -5 0
-10 -4 -10 -10z"/>
<path d="M7042 8184 c-7 -8 -8 -14 -3 -14 10 0 25 19 20 25 -2 1 -10 -3 -17
-11z"/>
<path d="M1466 8154 c-9 -8 -16 -20 -16 -26 0 -6 9 -1 20 12 29 33 25 44 -4
14z"/>
<path d="M5331 8144 c0 -11 3 -14 6 -6 3 7 2 16 -1 19 -3 4 -6 -2 -5 -13z"/>
<path d="M8756 8147 c3 -10 9 -15 12 -12 3 3 0 11 -7 18 -10 9 -11 8 -5 -6z"/>
<path d="M3130 8140 c-8 -5 -10 -10 -5 -10 6 0 17 5 25 10 8 5 11 10 5 10 -5
0 -17 -5 -25 -10z"/>
<path d="M7090 8140 c8 -5 20 -10 25 -10 6 0 3 5 -5 10 -8 5 -19 10 -25 10 -5
0 -3 -5 5 -10z"/>
<path d="M8780 8121 c0 -6 4 -13 10 -16 6 -3 7 1 4 9 -7 18 -14 21 -14 7z"/>
<path d="M1393 8066 c-24 -28 -51 -61 -60 -74 -10 -13 -26 -32 -35 -44 -10
-12 -18 -25 -18 -31 0 -5 10 3 22 19 13 16 28 35 35 42 7 7 13 17 13 22 0 5 9
12 21 15 11 4 18 12 16 18 -6 15 18 38 29 29 4 -4 4 -1 0 6 -4 6 -3 12 2 12 9
0 26 30 20 35 -2 2 -22 -20 -45 -49z"/>
<path d="M3086 8111 c-4 -5 3 -7 14 -4 23 6 26 13 6 13 -8 0 -17 -4 -20 -9z"/>
<path d="M5340 8110 c0 -5 5 -10 10 -10 6 0 10 5 10 10 0 6 -4 10 -10 10 -5 0
-10 -4 -10 -10z"/>
<path d="M4686 8095 c-3 -9 -6 -22 -5 -28 0 -7 5 -1 10 12 5 13 8 26 5 28 -2
2 -6 -3 -10 -12z"/>
<path d="M7180 8090 c-9 -6 -10 -10 -3 -10 6 0 15 5 18 10 8 12 4 12 -15 0z"/>
<path d="M8810 8085 c0 -5 5 -17 10 -25 5 -8 10 -10 10 -5 0 6 -5 17 -10 25
-5 8 -10 11 -10 5z"/>
<path d="M3030 8072 c0 -6 -8 -13 -17 -15 -16 -4 -16 -5 -1 -6 18 -1 34 16 24
26 -3 4 -6 1 -6 -5z"/>
<path d="M7230 8060 c-9 -6 -10 -10 -3 -10 6 0 15 5 18 10 8 12 4 12 -15 0z"/>
<path d="M4656 8024 c-4 -14 -5 -28 -3 -31 3 -2 8 8 11 23 4 14 5 28 3 31 -3
2 -8 -8 -11 -23z"/>
<path d="M2970 8030 c-8 -5 -10 -10 -5 -10 6 0 17 5 25 10 8 5 11 10 5 10 -5
0 -17 -5 -25 -10z"/>
<path d="M8866 8017 c3 -10 9 -15 12 -12 3 3 0 11 -7 18 -10 9 -11 8 -5 -6z"/>
<path d="M7300 7996 c7 -7 13 -7 20 0 6 6 3 10 -10 10 -13 0 -16 -4 -10 -10z"/>
<path d="M4626 7964 c-4 -14 -5 -28 -3 -31 3 -2 8 8 11 23 4 14 5 28 3 31 -3
2 -8 -8 -11 -23z"/>
<path d="M8896 7977 c3 -10 9 -15 12 -12 3 3 0 11 -7 18 -10 9 -11 8 -5 -6z"/>
<path d="M2880 7970 c-8 -5 -10 -10 -5 -10 6 0 17 5 25 10 8 5 11 10 5 10 -5
0 -17 -5 -25 -10z"/>
<path d="M7355 7970 c-8 -13 3 -30 18 -30 8 0 7 3 -2 9 -7 5 -10 14 -7 20 4 6
5 11 2 11 -3 0 -8 -4 -11 -10z"/>
<path d="M2835 7940 c-4 -11 -18 -23 -32 -26 -18 -5 -21 -9 -12 -15 8 -4 16
-5 19 -1 3 4 17 17 32 29 21 16 24 22 14 26 -9 4 -17 -2 -21 -13z"/>
<path d="M8920 7955 c0 -5 5 -17 10 -25 5 -8 10 -10 10 -5 0 6 -5 17 -10 25
-5 8 -10 11 -10 5z"/>
<path d="M1256 7895 c-9 -26 -7 -32 5 -12 6 10 9 21 6 23 -2 3 -7 -2 -11 -11z"/>
<path d="M7437 7889 c7 -7 15 -10 18 -7 3 3 -2 9 -12 12 -14 6 -15 5 -6 -5z"/>
<path d="M1226 7855 c-9 -26 -7 -32 5 -12 6 10 9 21 6 23 -2 3 -7 -2 -11 -11z"/>
<path d="M2723 7853 c-18 -9 -33 -20 -33 -24 0 -4 -7 -15 -16 -23 -8 -9 -12
-16 -7 -16 11 0 40 20 30 20 -4 0 -2 6 5 14 7 8 15 13 18 11 3 -1 14 6 24 16
23 23 21 23 -21 2z"/>
<path d="M7523 7835 c0 -7 6 -11 14 -8 7 3 13 1 13 -5 0 -6 -5 -12 -12 -14 -7
-3 -5 -7 6 -11 10 -4 15 -3 11 3 -3 6 -1 10 5 10 15 0 4 17 -19 29 -13 7 -18
6 -18 -4z"/>
<path d="M1173 7780 c-3 -11 -9 -20 -13 -20 -5 0 -12 -10 -16 -22 -4 -13 -12
-26 -18 -30 -8 -5 -7 -8 2 -8 7 0 16 8 19 18 4 9 13 23 20 30 7 7 13 20 13 28
0 8 5 12 10 9 6 -3 10 -1 10 4 0 19 -22 12 -27 -9z"/>
<path d="M4541 7784 c0 -11 3 -14 6 -6 3 7 2 16 -1 19 -3 4 -6 -2 -5 -13z"/>
<path d="M2633 7774 c-7 -7 -9 -15 -5 -17 4 -3 13 1 19 9 7 7 9 15 5 17 -4 3
-13 -1 -19 -9z"/>
<path d="M9040 7783 c0 -5 9 -20 20 -33 11 -13 20 -19 20 -13 0 5 -9 20 -20
33 -11 13 -20 19 -20 13z"/>
<path d="M2597 7735 c-8 -8 -18 -11 -22 -7 -5 4 -5 2 -1 -5 8 -15 32 -7 40 13
7 18 1 18 -17 -1z"/>
<path d="M2560 7701 c0 -7 -5 -9 -12 -5 -7 5 -8 3 -3 -5 5 -9 10 -10 18 -2 6
6 8 14 4 18 -4 3 -7 1 -7 -6z"/>
<path d="M7666 7689 c2 -4 13 -7 24 -6 23 2 17 10 -10 12 -10 1 -17 -2 -14 -6z"/>
<path d="M1097 7667 c-9 -11 -17 -28 -16 -37 0 -10 3 -9 9 5 5 11 9 16 10 10
1 -5 6 1 11 14 12 32 8 35 -14 8z"/>
<path d="M5581 7664 c0 -11 3 -14 6 -6 3 7 2 16 -1 19 -3 4 -6 -2 -5 -13z"/>
<path d="M9121 7675 c1 -19 18 -51 18 -35 0 8 -4 22 -9 30 -5 8 -9 11 -9 5z"/>
<path d="M2510 7658 c0 -4 4 -8 9 -8 6 0 12 4 15 8 3 5 -1 9 -9 9 -8 0 -15 -4
-15 -9z"/>
<path d="M7696 7659 c2 -4 13 -7 24 -6 23 2 17 10 -10 12 -10 1 -17 -2 -14 -6z"/>
<path d="M2482 7638 c-7 -7 -12 -18 -12 -25 0 -7 -6 -10 -14 -7 -17 6 -29 -23
-14 -32 7 -4 8 -3 4 4 -4 7 -1 12 6 12 17 0 61 47 50 54 -5 3 -14 0 -20 -6z"/>
<path d="M7744 7629 c-3 -6 -2 -15 3 -20 5 -5 9 -1 9 11 0 23 -2 24 -12 9z"/>
<path d="M1052 7604 c-7 -8 -9 -14 -5 -14 4 0 1 -4 -7 -10 -8 -5 -12 -12 -8
-15 4 -4 14 5 24 19 19 29 16 42 -4 20z"/>
<path d="M7773 7600 c-1 -11 2 -22 8 -25 5 -4 6 2 2 12 -6 16 -5 16 10 5 8 -8
14 -19 11 -27 -3 -7 -1 -15 4 -19 17 -10 5 35 -14 54 -20 20 -20 20 -21 0z"/>
<path d="M4431 7563 c0 -13 -5 -23 -11 -23 -5 0 -10 -5 -10 -12 0 -8 6 -7 16
4 9 8 14 24 11 34 -4 16 -5 15 -6 -3z"/>
<path d="M5620 7570 c0 -5 5 -10 11 -10 5 0 7 5 4 10 -3 6 -8 10 -11 10 -2 0
-4 -4 -4 -10z"/>
<path d="M9180 7572 c0 -6 7 -17 15 -26 8 -8 15 -19 15 -24 0 -5 7 -15 15 -22
10 -9 15 -9 15 -1 0 6 -4 11 -10 11 -5 0 -10 5 -10 11 0 6 -9 22 -20 36 -11
14 -20 21 -20 15z"/>
<path d="M1006 7534 c-9 -24 -7 -27 9 -10 17 17 19 26 6 26 -5 0 -12 -7 -15
-16z"/>
<path d="M2375 7531 c-6 -11 9 -23 19 -14 9 9 7 23 -3 23 -6 0 -12 -4 -16 -9z"/>
<path d="M7837 7519 c7 -7 15 -10 18 -7 3 3 -2 9 -12 12 -14 6 -15 5 -6 -5z"/>
<path d="M5650 7510 c0 -5 5 -10 10 -10 6 0 10 5 10 10 0 6 -4 10 -10 10 -5 0
-10 -4 -10 -10z"/>
<path d="M7867 7507 c-2 -7 3 -23 13 -35 15 -18 19 -19 24 -6 4 10 2 13 -6 8
-7 -5 -9 -2 -5 9 4 11 2 14 -9 10 -10 -4 -12 0 -8 11 3 9 4 16 1 16 -3 0 -7
-6 -10 -13z"/>
<path d="M2353 7496 c0 -8 6 -12 14 -9 7 3 10 9 7 14 -8 14 -21 11 -21 -5z"/>
<path d="M976 7485 c-3 -9 -6 -22 -5 -28 0 -7 5 -1 10 12 5 13 8 26 5 28 -2 2
-6 -3 -10 -12z"/>
<path d="M2323 7458 c-2 -18 0 -20 7 -8 12 18 13 30 2 30 -4 0 -9 -10 -9 -22z"/>
<path d="M5693 7436 c7 -14 13 -23 15 -21 7 6 -9 45 -18 45 -4 0 -3 -11 3 -24z"/>
<path d="M7910 7445 c0 -8 16 -31 35 -51 19 -19 35 -40 35 -46 0 -5 5 -8 11
-6 6 2 9 8 7 13 -2 6 -7 9 -12 7 -5 -2 -6 4 -2 13 3 9 2 14 -2 12 -4 -3 -12 1
-19 8 -10 11 -10 15 0 19 7 3 1 3 -13 0 -20 -5 -23 -4 -13 7 9 9 10 16 2 26
-15 17 -29 17 -29 -2z"/>
<path d="M946 7435 c-3 -9 -6 -22 -5 -28 0 -7 5 -1 10 12 5 13 8 26 5 28 -2 2
-6 -3 -10 -12z"/>
<path d="M4371 7434 c0 -11 3 -14 6 -6 3 7 2 16 -1 19 -3 4 -6 -2 -5 -13z"/>
<path d="M2256 7401 c-11 -12 -14 -21 -7 -26 16 -9 33 5 27 22 -5 11 -2 13 9
9 9 -3 13 -2 10 4 -9 15 -20 12 -39 -9z"/>
<path d="M5715 7390 c3 -5 8 -10 11 -10 2 0 4 5 4 10 0 6 -5 10 -11 10 -5 0
-7 -4 -4 -10z"/>
<path d="M9291 7395 c1 -19 18 -51 18 -35 0 8 -4 22 -9 30 -5 8 -9 11 -9 5z"/>
<path d="M911 7354 c0 -11 3 -14 6 -6 3 7 2 16 -1 19 -3 4 -6 -2 -5 -13z"/>
<path d="M2224 7355 c-9 -22 1 -29 15 -11 8 10 9 16 1 21 -5 3 -13 -1 -16 -10z"/>
<path d="M8005 7339 c-6 -9 4 -25 43 -67 6 -7 12 -18 12 -23 0 -6 5 -7 10 -4
6 3 10 11 10 16 0 6 -4 8 -9 5 -5 -3 -12 6 -15 19 -4 14 -11 23 -17 19 -6 -3
-10 0 -8 7 4 36 -11 53 -26 28z"/>
<path d="M2190 7325 c-6 -8 -9 -19 -5 -24 3 -7 0 -8 -9 -5 -9 3 -16 2 -16 -4
0 -13 30 -24 31 -12 1 6 2 16 3 23 1 6 7 11 14 10 6 -2 9 4 6 12 -7 18 -9 19
-24 0z"/>
<path d="M4311 7304 c0 -11 3 -14 6 -6 3 7 2 16 -1 19 -3 4 -6 -2 -5 -13z"/>
<path d="M845 7247 c-11 -23 -23 -44 -27 -47 -3 -3 -9 -19 -13 -35 -5 -24 -2
-21 17 15 13 25 26 47 30 50 7 6 22 60 17 60 -2 0 -13 -19 -24 -43z"/>
<path d="M4286 7264 c-4 -14 -5 -28 -3 -31 3 -2 8 8 11 23 4 14 5 28 3 31 -3
2 -8 -8 -11 -23z"/>
<path d="M9360 7249 c0 -5 5 -7 10 -4 6 3 10 8 10 11 0 2 -4 4 -10 4 -5 0 -10
-5 -10 -11z"/>
<path d="M8086 7241 c-4 -6 -3 -18 2 -27 6 -11 11 -13 16 -5 4 6 3 18 -2 27
-6 11 -11 13 -16 5z"/>
<path d="M2126 7227 c3 -10 9 -15 12 -12 3 3 0 11 -7 18 -10 9 -11 8 -5 -6z"/>
<path d="M9381 7224 c0 -11 3 -14 6 -6 3 7 2 16 -1 19 -3 4 -6 -2 -5 -13z"/>
<path d="M4261 7214 c0 -11 3 -14 6 -6 3 7 2 16 -1 19 -3 4 -6 -2 -5 -13z"/>
<path d="M8116 7201 c-8 -12 3 -41 15 -41 5 0 9 5 9 10 0 6 -4 10 -10 10 -5 0
-7 7 -4 15 7 16 -1 21 -10 6z"/>
<path d="M9390 7189 c0 -5 5 -7 10 -4 6 3 10 8 10 11 0 2 -4 4 -10 4 -5 0 -10
-5 -10 -11z"/>
<path d="M4245 7181 c-3 -5 -1 -12 5 -16 5 -3 10 1 10 9 0 18 -6 21 -15 7z"/>
<path d="M9411 7164 c0 -11 3 -14 6 -6 3 7 2 16 -1 19 -3 4 -6 -2 -5 -13z"/>
<path d="M5841 7144 c0 -11 3 -14 6 -6 3 7 2 16 -1 19 -3 4 -6 -2 -5 -13z"/>
<path d="M8141 7144 c23 -50 59 -90 59 -64 0 6 -5 10 -11 10 -5 0 -8 3 -6 8 2
4 -7 18 -21 31 -14 14 -23 20 -21 15z"/>
<path d="M9420 7130 c0 -5 5 -10 10 -10 6 0 10 5 10 10 0 6 -4 10 -10 10 -5 0
-10 -4 -10 -10z"/>
<path d="M2043 7102 c-1 -22 0 -24 9 -8 6 10 6 22 2 26 -5 5 -10 -3 -11 -18z"/>
<path d="M4201 7084 c0 -11 3 -14 6 -6 3 7 2 16 -1 19 -3 4 -6 -2 -5 -13z"/>
<path d="M2017 7069 c7 -7 15 -10 18 -7 3 3 -2 9 -12 12 -14 6 -15 5 -6 -5z"/>
<path d="M8205 7059 c-4 -5 0 -18 9 -28 9 -10 16 -24 16 -32 0 -12 2 -11 10 1
11 16 14 37 4 27 -10 -9 -32 16 -27 30 6 16 -3 17 -12 2z"/>
<path d="M4175 7039 c-4 -11 -4 -23 -1 -26 3 -4 6 1 6 11 0 9 5 14 10 11 6 -3
10 1 10 9 0 23 -18 20 -25 -5z"/>
<path d="M9471 7034 c0 -11 3 -14 6 -6 3 7 2 16 -1 19 -3 4 -6 -2 -5 -13z"/>
<path d="M741 7024 c0 -11 3 -14 6 -6 3 7 2 16 -1 19 -3 4 -6 -2 -5 -13z"/>
<path d="M1982 7008 c0 -31 1 -31 9 -9 6 14 6 28 1 33 -5 5 -9 -5 -10 -24z"/>
<path d="M721 6998 c0 -9 -4 -25 -7 -35 -5 -17 -5 -17 6 0 6 10 9 25 7 35 -4
15 -5 15 -6 0z"/>
<path d="M4151 6993 c-1 -6 -4 -20 -7 -30 -5 -17 -5 -17 6 0 6 10 9 23 6 30
-3 9 -5 9 -5 0z"/>
<path d="M1956 6977 c3 -10 9 -15 12 -12 3 3 0 11 -7 18 -10 9 -11 8 -5 -6z"/>
<path d="M8256 6968 c3 -12 13 -28 20 -36 8 -7 14 -19 14 -27 0 -7 3 -15 8
-17 4 -1 22 -33 41 -70 19 -38 37 -68 39 -68 9 0 -10 53 -23 67 -8 8 -15 21
-15 29 0 8 -4 14 -10 14 -5 0 -7 7 -4 15 4 8 1 15 -5 15 -6 0 -11 7 -11 15 0
8 -5 15 -11 15 -5 0 -7 5 -4 11 4 5 -2 18 -14 28 -11 10 -18 21 -14 25 3 3 1
6 -6 6 -8 0 -10 -7 -5 -22z"/>
<path d="M1940 6950 c0 -5 5 -10 11 -10 5 0 7 5 4 10 -3 6 -8 10 -11 10 -2 0
-4 -4 -4 -10z"/>
<path d="M5951 6940 c0 -8 4 -24 9 -35 5 -13 9 -14 9 -5 0 8 -4 24 -9 35 -5
13 -9 14 -9 5z"/>
<path d="M9521 6934 c0 -11 3 -14 6 -6 3 7 2 16 -1 19 -3 4 -6 -2 -5 -13z"/>
<path d="M691 6924 c0 -11 3 -14 6 -6 3 7 2 16 -1 19 -3 4 -6 -2 -5 -13z"/>
<path d="M1916 6924 c-9 -23 -7 -34 4 -34 5 0 6 7 3 17 -4 11 -3 14 5 9 7 -4
12 -3 12 3 0 17 -18 21 -24 5z"/>
<path d="M4121 6924 c0 -11 3 -14 6 -6 3 7 2 16 -1 19 -3 4 -6 -2 -5 -13z"/>
<path d="M675 6890 c-3 -5 -1 -10 4 -10 6 0 11 5 11 10 0 6 -2 10 -4 10 -3 0
-8 -4 -11 -10z"/>
<path d="M5981 6874 c0 -11 3 -14 6 -6 3 7 2 16 -1 19 -3 4 -6 -2 -5 -13z"/>
<path d="M661 6854 c0 -11 3 -14 6 -6 3 7 2 16 -1 19 -3 4 -6 -2 -5 -13z"/>
<path d="M1880 6840 c0 -5 5 -10 11 -10 5 0 7 5 4 10 -3 6 -8 10 -11 10 -2 0
-4 -4 -4 -10z"/>
<path d="M4060 6795 c0 -8 4 -15 10 -15 5 0 7 7 4 15 -4 8 -8 15 -10 15 -2 0
-4 -7 -4 -15z"/>
<path d="M9581 6784 c0 -11 3 -14 6 -6 3 7 2 16 -1 19 -3 4 -6 -2 -5 -13z"/>
<path d="M631 6774 c0 -11 3 -14 6 -6 3 7 2 16 -1 19 -3 4 -6 -2 -5 -13z"/>
<path d="M1845 6769 c-10 -30 -2 -32 12 -3 6 13 7 24 3 24 -5 0 -12 -9 -15
-21z"/>
<path d="M6041 6754 c0 -11 3 -14 6 -6 3 7 2 16 -1 19 -3 4 -6 -2 -5 -13z"/>
<path d="M4031 6734 c0 -11 3 -14 6 -6 3 7 2 16 -1 19 -3 4 -6 -2 -5 -13z"/>
<path d="M8397 6720 c3 -14 8 -27 13 -30 4 -3 11 -20 15 -37 3 -18 11 -33 16
-33 5 0 9 -5 9 -11 0 -6 6 -25 14 -42 8 -18 24 -54 36 -82 11 -27 24 -57 29
-65 4 -8 16 -43 27 -77 10 -35 22 -63 27 -63 4 0 7 -10 8 -22 0 -13 3 -18 5
-12 5 11 -6 47 -51 172 -8 23 -19 50 -24 60 -5 9 -16 33 -24 52 -9 19 -29 65
-46 102 -17 37 -31 72 -31 77 0 6 -4 11 -9 11 -5 0 -11 6 -14 13 -2 6 -2 1 0
-13z"/>
<path d="M9611 6704 c0 -11 3 -14 6 -6 3 7 2 16 -1 19 -3 4 -6 -2 -5 -13z"/>
<path d="M602 6690 c0 -14 2 -19 5 -12 2 6 2 18 0 25 -3 6 -5 1 -5 -13z"/>
<path d="M4006 6695 c-3 -9 -6 -22 -5 -28 0 -7 5 -1 10 12 5 13 8 26 5 28 -2
2 -6 -3 -10 -12z"/>
<path d="M6091 6670 c1 -24 15 -55 21 -44 2 5 -1 20 -8 34 -8 14 -13 18 -13
10z"/>
<path d="M9632 6665 c0 -11 3 -29 8 -40 11 -25 11 1 0 35 -6 20 -8 21 -8 5z"/>
<path d="M581 6644 c0 -11 3 -14 6 -6 3 7 2 16 -1 19 -3 4 -6 -2 -5 -13z"/>
<path d="M1775 6640 c-3 -5 -1 -10 4 -10 6 0 11 5 11 10 0 6 -2 10 -4 10 -3 0
-8 -4 -11 -10z"/>
<path d="M571 6604 c0 -11 3 -14 6 -6 3 7 2 16 -1 19 -3 4 -6 -2 -5 -13z"/>
<path d="M1761 6604 c0 -11 3 -14 6 -6 3 7 2 16 -1 19 -3 4 -6 -2 -5 -13z"/>
<path d="M6120 6610 c0 -17 17 -47 23 -40 2 3 -2 16 -10 30 -7 14 -13 18 -13
10z"/>
<path d="M3946 6568 c-8 -31 -7 -38 2 -38 4 0 9 14 10 30 3 35 -3 39 -12 8z"/>
<path d="M9661 6574 c0 -11 3 -14 6 -6 3 7 2 16 -1 19 -3 4 -6 -2 -5 -13z"/>
<path d="M552 6560 c0 -14 2 -19 5 -12 2 6 2 18 0 25 -3 6 -5 1 -5 -13z"/>
<path d="M1740 6570 c0 -5 5 -10 10 -10 6 0 10 5 10 10 0 6 -4 10 -10 10 -5 0
-10 -4 -10 -10z"/>
<path d="M6150 6550 c0 -17 17 -47 23 -40 2 3 -2 16 -10 30 -7 14 -13 18 -13
10z"/>
<path d="M1731 6534 c0 -11 3 -14 6 -6 3 7 2 16 -1 19 -3 4 -6 -2 -5 -13z"/>
<path d="M9672 6530 c0 -14 2 -19 5 -12 2 6 2 18 0 25 -3 6 -5 1 -5 -13z"/>
<path d="M542 6510 c0 -14 2 -19 5 -12 2 6 2 18 0 25 -3 6 -5 1 -5 -13z"/>
<path d="M1710 6499 c0 -5 5 -7 10 -4 6 3 10 8 10 11 0 2 -4 4 -10 4 -5 0 -10
-5 -10 -11z"/>
<path d="M6181 6484 c0 -11 3 -14 6 -6 3 7 2 16 -1 19 -3 4 -6 -2 -5 -13z"/>
<path d="M9691 6484 c0 -11 3 -14 6 -6 3 7 2 16 -1 19 -3 4 -6 -2 -5 -13z"/>
<path d="M3900 6480 c0 -5 5 -10 10 -10 6 0 10 5 10 10 0 6 -4 10 -10 10 -5 0
-10 -4 -10 -10z"/>
<path d="M522 6460 c0 -14 2 -19 5 -12 2 6 2 18 0 25 -3 6 -5 1 -5 -13z"/>
<path d="M1701 6464 c0 -11 3 -14 6 -6 3 7 2 16 -1 19 -3 4 -6 -2 -5 -13z"/>
<path d="M6201 6460 c0 -8 4 -24 9 -35 5 -13 9 -14 9 -5 0 8 -4 24 -9 35 -5
13 -9 14 -9 5z"/>
<path d="M3883 6434 c-6 -13 -7 -24 -3 -24 9 0 25 39 18 45 -2 2 -8 -7 -15
-21z"/>
<path d="M1681 6434 c0 -11 3 -14 6 -6 3 7 2 16 -1 19 -3 4 -6 -2 -5 -13z"/>
<path d="M1671 6394 c0 -11 3 -14 6 -6 3 7 2 16 -1 19 -3 4 -6 -2 -5 -13z"/>
<path d="M6228 6404 c-2 -5 1 -20 8 -34 8 -14 13 -18 13 -10 -1 24 -15 55 -21
44z"/>
<path d="M3861 6384 c0 -11 3 -14 6 -6 3 7 2 16 -1 19 -3 4 -6 -2 -5 -13z"/>
<path d="M9721 6384 c0 -11 3 -14 6 -6 3 7 2 16 -1 19 -3 4 -6 -2 -5 -13z"/>
<path d="M492 6355 c0 -16 2 -22 5 -12 2 9 2 23 0 30 -3 6 -5 -1 -5 -18z"/>
<path d="M1652 6350 c0 -14 2 -19 5 -12 2 6 2 18 0 25 -3 6 -5 1 -5 -13z"/>
<path d="M6261 6334 c0 -11 3 -14 6 -6 3 7 2 16 -1 19 -3 4 -6 -2 -5 -13z"/>
<path d="M470 6305 c0 -8 5 -15 10 -15 6 0 10 7 10 15 0 8 -4 15 -10 15 -5 0
-10 -7 -10 -15z"/>
<path d="M3810 6289 c0 -5 5 -7 10 -4 6 3 10 8 10 11 0 2 -4 4 -10 4 -5 0 -10
-5 -10 -11z"/>
<path d="M6291 6274 c0 -11 3 -14 6 -6 3 7 2 16 -1 19 -3 4 -6 -2 -5 -13z"/>
<path d="M9752 6270 c0 -14 2 -19 5 -12 2 6 2 18 0 25 -3 6 -5 1 -5 -13z"/>
<path d="M1621 6264 c0 -11 3 -14 6 -6 3 7 2 16 -1 19 -3 4 -6 -2 -5 -13z"/>
<path d="M461 6243 c0 -18 -5 -33 -11 -33 -5 0 -10 -14 -10 -32 0 -32 12 -32
15 0 1 9 5 25 9 34 4 9 6 27 3 40 -3 17 -5 15 -6 -9z"/>
<path d="M3801 6254 c0 -11 3 -14 6 -6 3 7 2 16 -1 19 -3 4 -6 -2 -5 -13z"/>
<path d="M1611 6224 c0 -11 3 -14 6 -6 3 7 2 16 -1 19 -3 4 -6 -2 -5 -13z"/>
<path d="M3766 6198 c-10 -21 -15 -42 -12 -45 3 -4 6 1 6 10 0 10 4 17 9 17 8
0 25 49 19 55 -2 2 -11 -15 -22 -37z"/>
<path d="M5111 6224 c0 -11 3 -14 6 -6 3 7 2 16 -1 19 -3 4 -6 -2 -5 -13z"/>
<path d="M6321 6214 c0 -11 3 -14 6 -6 3 7 2 16 -1 19 -3 4 -6 -2 -5 -13z"/>
<path d="M8600 6215 c0 -12 4 -25 9 -30 5 -6 11 -19 14 -30 4 -16 5 -15 5 5 1
14 -5 36 -13 50 -13 23 -14 23 -15 5z"/>
<path d="M5135 6180 c4 -14 12 -26 16 -28 5 -2 9 -11 9 -20 0 -10 9 -34 20
-55 11 -20 20 -44 20 -52 0 -8 4 -15 9 -15 5 0 12 -13 16 -30 4 -16 10 -30 15
-30 5 0 11 -13 15 -30 4 -16 11 -30 16 -30 5 0 9 -7 9 -15 0 -8 5 -15 11 -15
5 0 8 -4 5 -9 -7 -10 18 -63 26 -55 3 3 9 -11 12 -31 4 -19 11 -35 16 -35 6 0
10 -9 10 -19 0 -11 7 -26 15 -35 8 -8 15 -19 15 -25 0 -6 13 -37 29 -68 15
-32 37 -77 47 -100 11 -24 22 -43 27 -43 4 0 7 -5 7 -11 0 -13 42 -101 51
-109 4 -3 10 -20 14 -37 3 -18 10 -33 15 -33 5 0 11 -13 15 -30 4 -16 10 -30
15 -30 5 0 11 -13 15 -29 3 -15 14 -37 24 -48 10 -11 22 -34 26 -51 3 -18 10
-32 15 -32 5 0 11 -13 15 -30 4 -16 11 -30 16 -30 5 0 9 -9 9 -19 0 -11 7 -26
15 -35 8 -8 15 -20 15 -26 0 -14 31 -72 43 -81 5 -3 9 -10 9 -15 1 -22 37
-105 50 -114 3 -3 10 -18 13 -33 4 -15 11 -27 15 -27 5 0 11 -13 15 -30 7 -31
25 -42 25 -15 0 8 -4 15 -10 15 -5 0 -10 3 -9 8 2 14 -14 52 -22 52 -5 0 -6 7
-3 15 4 8 2 15 -4 15 -5 0 -13 16 -16 35 -4 19 -10 35 -14 35 -4 0 -16 20 -27
45 -11 25 -24 45 -28 45 -4 0 -7 6 -6 13 2 6 -7 28 -19 47 -11 19 -22 40 -22
45 -1 6 -6 16 -12 23 -6 6 -7 12 -4 12 4 0 -2 13 -13 29 -12 16 -21 32 -21 35
0 14 -35 86 -42 86 -5 0 -8 7 -8 15 0 8 -4 15 -10 15 -5 0 -10 9 -10 19 0 20
-40 101 -50 101 -3 0 -6 10 -7 22 -1 11 -16 43 -32 70 -17 27 -31 53 -31 58 0
5 -24 56 -52 112 -29 57 -53 108 -53 113 0 6 -2 12 -5 15 -5 5 -14 24 -80 163
-22 48 -46 87 -51 87 -6 0 -8 4 -5 9 3 5 -1 22 -9 37 -8 16 -15 35 -15 42 0 6
-5 12 -12 12 -6 0 -9 3 -5 6 3 3 -4 22 -15 42 -12 21 -32 57 -46 82 -31 55
-37 62 -27 30z"/>
<path d="M1591 6174 c0 -11 3 -14 6 -6 3 7 2 16 -1 19 -3 4 -6 -2 -5 -13z"/>
<path d="M6330 6180 c0 -5 5 -10 10 -10 6 0 10 -7 10 -17 0 -9 3 -14 6 -10 8
8 -5 47 -17 47 -5 0 -9 -4 -9 -10z"/>
<path d="M9782 6150 c0 -14 2 -19 5 -12 2 6 2 18 0 25 -3 6 -5 1 -5 -13z"/>
<path d="M432 6115 c0 -16 2 -22 5 -12 2 9 2 23 0 30 -3 6 -5 -1 -5 -18z"/>
<path d="M8630 6112 c0 -12 4 -22 9 -22 5 0 12 -10 14 -22 2 -13 3 -8 1 11 -4
40 -24 68 -24 33z"/>
<path d="M3721 6094 c0 -11 3 -14 6 -6 3 7 2 16 -1 19 -3 4 -6 -2 -5 -13z"/>
<path d="M1562 6075 c0 -16 2 -22 5 -12 2 9 2 23 0 30 -3 6 -5 -1 -5 -18z"/>
<path d="M9801 6084 c0 -11 3 -14 6 -6 3 7 2 16 -1 19 -3 4 -6 -2 -5 -13z"/>
<path d="M413 6035 c0 -22 2 -30 4 -17 2 12 2 30 0 40 -3 9 -5 -1 -4 -23z"/>
<path d="M3696 6054 c-8 -22 -8 -44 2 -44 4 0 7 14 8 30 1 34 -1 37 -10 14z"/>
<path d="M9812 6015 c0 -16 2 -22 5 -12 2 9 2 23 0 30 -3 6 -5 -1 -5 -18z"/>
<path d="M8663 6009 c3 -13 13 -55 22 -94 10 -38 21 -90 26 -115 6 -37 7 -33
3 23 -3 38 -9 76 -14 85 -5 9 -12 38 -15 64 -3 26 -11 51 -17 54 -7 5 -9 -1
-5 -17z"/>
<path d="M3666 5995 c-3 -9 -6 -24 -5 -33 0 -9 5 -4 10 12 9 32 6 48 -5 21z"/>
<path d="M403 5955 c0 -22 2 -30 4 -17 2 12 2 30 0 40 -3 9 -5 -1 -4 -23z"/>
<path d="M1532 5955 c0 -16 2 -22 5 -12 2 9 2 23 0 30 -3 6 -5 -1 -5 -18z"/>
<path d="M9832 5935 c0 -16 2 -22 5 -12 2 9 2 23 0 30 -3 6 -5 -1 -5 -18z"/>
<path d="M3636 5924 c-4 -14 -5 -28 -3 -31 3 -2 8 8 11 23 4 14 5 28 3 31 -3
2 -8 -8 -11 -23z"/>
<path d="M6470 5910 c0 -5 5 -10 10 -10 6 0 10 5 10 10 0 6 -4 10 -10 10 -5 0
-10 -4 -10 -10z"/>
<path d="M382 5870 c0 -19 2 -27 5 -17 2 9 2 25 0 35 -3 9 -5 1 -5 -18z"/>
<path d="M1512 5880 c0 -14 2 -19 5 -12 2 6 2 18 0 25 -3 6 -5 1 -5 -13z"/>
<path d="M4881 5864 c0 -11 3 -14 6 -6 3 7 2 16 -1 19 -3 4 -6 -2 -5 -13z"/>
<path d="M9842 5860 c0 -14 2 -19 5 -12 2 6 2 18 0 25 -3 6 -5 1 -5 -13z"/>
<path d="M1502 5815 c0 -16 2 -22 5 -12 2 9 2 23 0 30 -3 6 -5 -1 -5 -18z"/>
<path d="M3573 5794 c-6 -13 -8 -26 -3 -29 4 -3 11 7 14 21 9 35 4 39 -11 8z"/>
<path d="M372 5790 c0 -14 2 -19 5 -12 2 6 2 18 0 25 -3 6 -5 1 -5 -13z"/>
<path d="M9863 5755 c0 -22 2 -30 4 -17 2 12 2 30 0 40 -3 9 -5 -1 -4 -23z"/>
<path d="M3551 5744 c0 -11 3 -14 6 -6 3 7 2 16 -1 19 -3 4 -6 -2 -5 -13z"/>
<path d="M1482 5730 c0 -14 2 -19 5 -12 2 6 2 18 0 25 -3 6 -5 1 -5 -13z"/>
<path d="M8733 5715 c0 -22 2 -30 4 -17 2 12 2 30 0 40 -3 9 -5 -1 -4 -23z"/>
<path d="M6571 5735 c1 -19 18 -51 18 -35 0 8 -4 22 -9 30 -5 8 -9 11 -9 5z"/>
<path d="M3530 5710 c0 -5 5 -10 10 -10 6 0 10 5 10 10 0 6 -4 10 -10 10 -5 0
-10 -4 -10 -10z"/>
<path d="M353 5660 c0 -25 2 -35 4 -22 2 12 2 32 0 45 -2 12 -4 2 -4 -23z"/>
<path d="M3521 5674 c0 -11 3 -14 6 -6 3 7 2 16 -1 19 -3 4 -6 -2 -5 -13z"/>
<path d="M4791 5664 c0 -11 3 -14 6 -6 3 7 2 16 -1 19 -3 4 -6 -2 -5 -13z"/>
<path d="M6601 5670 c0 -8 4 -22 9 -30 12 -18 12 -2 0 25 -6 13 -9 15 -9 5z"/>
<path d="M9873 5625 c0 -33 2 -45 4 -27 2 18 2 45 0 60 -2 15 -4 0 -4 -33z"/>
<path d="M1472 5645 c0 -16 2 -22 5 -12 2 9 2 23 0 30 -3 6 -5 -1 -5 -18z"/>
<path d="M8743 5620 c0 -30 2 -43 4 -27 2 15 2 39 0 55 -2 15 -4 2 -4 -28z"/>
<path d="M3496 5635 c-4 -15 -5 -30 -1 -33 3 -3 5 2 5 11 0 8 6 17 13 20 9 3
9 8 1 16 -9 10 -13 6 -18 -14z"/>
<path d="M4766 5624 c-4 -14 -5 -28 -3 -31 3 -2 8 8 11 23 4 14 5 28 3 31 -3
2 -8 -8 -11 -23z"/>
<path d="M338 5541 c-12 -52 -10 -127 2 -115 6 6 10 41 8 80 -3 58 -4 64 -10
35z"/>
<path d="M1453 5530 c0 -25 2 -35 4 -22 2 12 2 32 0 45 -2 12 -4 2 -4 -23z"/>
<path d="M6661 5550 c-1 -23 15 -45 23 -31 4 6 3 11 -3 11 -5 0 -12 8 -14 18
-3 12 -5 13 -6 2z"/>
<path d="M8763 5490 c0 -30 2 -43 4 -27 2 15 2 39 0 55 -2 15 -4 2 -4 -28z"/>
<path d="M9893 5485 c0 -33 2 -45 4 -27 2 18 2 45 0 60 -2 15 -4 0 -4 -33z"/>
<path d="M3411 5460 c-18 -37 -31 -74 -28 -81 3 -8 6 -4 6 9 1 12 5 22 10 22
5 0 12 14 16 30 4 17 10 30 13 30 10 0 31 49 24 54 -4 2 -22 -27 -41 -64z"/>
<path d="M4706 5494 c-4 -14 -5 -28 -3 -31 3 -2 8 8 11 23 4 14 5 28 3 31 -3
2 -8 -8 -11 -23z"/>
<path d="M6691 5490 c-1 -21 16 -46 26 -37 4 5 3 11 -3 15 -6 4 -14 14 -17 22
-5 13 -5 13 -6 0z"/>
<path d="M1432 5415 c-1 -19 3 -45 8 -57 7 -18 9 -10 9 35 1 61 -15 81 -17 22z"/>
<path d="M6721 5430 c-1 -21 16 -46 26 -37 4 5 3 11 -3 15 -6 4 -14 14 -17 22
-5 13 -5 13 -6 0z"/>
<path d="M4665 5410 c-3 -5 -1 -10 4 -10 6 0 11 5 11 10 0 6 -2 10 -4 10 -3 0
-8 -4 -11 -10z"/>
<path d="M8770 5320 c0 -46 3 -81 6 -78 8 8 8 147 0 155 -3 3 -6 -31 -6 -77z"/>
<path d="M324 5080 c0 -173 2 -244 3 -157 2 86 2 228 0 315 -1 86 -3 15 -3
-158z"/>
<path d="M4651 5374 c0 -11 3 -14 6 -6 3 7 2 16 -1 19 -3 4 -6 -2 -5 -13z"/>
<path d="M3356 5345 c-3 -9 -6 -22 -5 -28 0 -7 5 -1 10 12 5 13 8 26 5 28 -2
2 -6 -3 -10 -12z"/>
<path d="M6765 5340 c-3 -5 -1 -10 4 -10 6 0 11 5 11 10 0 6 -2 10 -4 10 -3 0
-8 -4 -11 -10z"/>
<path d="M9904 5075 c0 -132 3 -228 7 -215 10 34 9 354 0 410 -5 27 -8 -52 -7
-195z"/>
<path d="M3326 5285 c-3 -9 -6 -24 -5 -33 0 -9 5 -4 10 12 9 32 6 48 -5 21z"/>
<path d="M4600 5280 c0 -5 5 -10 10 -10 6 0 10 5 10 10 0 6 -4 10 -10 10 -5 0
-10 -4 -10 -10z"/>
<path d="M4586 5245 c4 -8 8 -15 10 -15 2 0 4 7 4 15 0 8 -4 15 -10 15 -5 0
-7 -7 -4 -15z"/>
<path d="M3296 5214 c-4 -14 -5 -28 -3 -31 3 -2 8 8 11 23 4 14 5 28 3 31 -3
2 -8 -8 -11 -23z"/>
<path d="M1424 5110 c0 -69 1 -97 3 -62 2 34 2 90 0 125 -2 34 -3 6 -3 -63z"/>
<path d="M6831 5214 c0 -11 3 -14 6 -6 3 7 2 16 -1 19 -3 4 -6 -2 -5 -13z"/>
<path d="M3271 5164 c0 -11 3 -14 6 -6 3 7 2 16 -1 19 -3 4 -6 -2 -5 -13z"/>
<path d="M6861 5154 c0 -11 3 -14 6 -6 3 7 2 16 -1 19 -3 4 -6 -2 -5 -13z"/>
<path d="M6881 5130 c0 -8 4 -24 9 -35 5 -13 9 -14 9 -5 0 8 -4 24 -9 35 -5
13 -9 14 -9 5z"/>
<path d="M4526 5115 c4 -8 8 -15 10 -15 2 0 4 7 4 15 0 8 -4 15 -10 15 -5 0
-7 -7 -4 -15z"/>
<path d="M4511 5084 c0 -11 3 -14 6 -6 3 7 2 16 -1 19 -3 4 -6 -2 -5 -13z"/>
<path d="M6911 5070 c0 -8 4 -24 9 -35 5 -13 9 -14 9 -5 0 8 -4 24 -9 35 -5
13 -9 14 -9 5z"/>
<path d="M4485 5040 c-4 -17 -4 -34 -1 -37 3 -4 6 3 6 15 0 11 6 22 13 25 9 3
9 7 1 17 -9 9 -14 5 -19 -20z"/>
<path d="M3210 5038 c0 -9 -4 -18 -9 -20 -5 -1 -11 -14 -14 -28 -2 -14 -2 -19
0 -12 3 6 8 12 13 12 10 0 23 50 15 58 -3 3 -5 -2 -5 -10z"/>
<path d="M6941 5010 c0 -8 4 -24 9 -35 5 -13 9 -14 9 -5 0 8 -4 24 -9 35 -5
13 -9 14 -9 5z"/>
<path d="M4456 4974 c-9 -35 -4 -39 11 -8 6 13 8 26 3 29 -4 3 -11 -7 -14 -21z"/>
<path d="M3160 4945 c0 -8 4 -15 10 -15 5 0 7 7 4 15 -4 8 -8 15 -10 15 -2 0
-4 -7 -4 -15z"/>
<path d="M6971 4944 c0 -11 3 -14 6 -6 3 7 2 16 -1 19 -3 4 -6 -2 -5 -13z"/>
<path d="M6980 4910 c0 -5 5 -10 10 -10 6 0 10 -7 10 -17 0 -9 3 -14 6 -10 8
8 -5 47 -17 47 -5 0 -9 -4 -9 -10z"/>
<path d="M8773 4850 c0 -41 2 -58 4 -37 2 20 2 54 0 75 -2 20 -4 3 -4 -38z"/>
<path d="M3130 4874 c0 -8 5 -12 10 -9 6 4 8 11 5 16 -9 14 -15 11 -15 -7z"/>
<path d="M7010 4850 c0 -5 5 -10 10 -10 6 0 10 -7 10 -17 0 -9 3 -14 6 -10 8
8 -5 47 -17 47 -5 0 -9 -4 -9 -10z"/>
<path d="M1441 4784 c0 -11 3 -14 6 -6 3 7 2 16 -1 19 -3 4 -6 -2 -5 -13z"/>
<path d="M4366 4774 c-4 -14 -5 -28 -3 -31 3 -2 8 8 11 23 4 14 5 28 3 31 -3
2 -8 -8 -11 -23z"/>
<path d="M7045 4790 c3 -5 8 -10 11 -10 2 0 4 5 4 10 0 6 -5 10 -11 10 -5 0
-7 -4 -4 -10z"/>
<path d="M3056 4719 c-11 -21 -16 -42 -13 -46 4 -3 7 -1 7 6 0 7 9 26 20 41
11 16 17 31 13 33 -5 3 -17 -12 -27 -34z"/>
<path d="M331 4680 c0 -36 4 -72 9 -80 12 -19 12 96 0 125 -6 14 -9 0 -9 -45z"/>
<path d="M8763 4685 c0 -27 2 -38 4 -22 2 15 2 37 0 50 -2 12 -4 0 -4 -28z"/>
<path d="M9893 4670 c0 -36 2 -50 4 -32 2 17 2 47 0 65 -2 17 -4 3 -4 -33z"/>
<path d="M1453 4645 c0 -27 2 -38 4 -22 2 15 2 37 0 50 -2 12 -4 0 -4 -28z"/>
<path d="M4311 4654 c0 -11 3 -14 6 -6 3 7 2 16 -1 19 -3 4 -6 -2 -5 -13z"/>
<path d="M3016 4634 c-10 -37 -2 -39 11 -4 6 17 8 30 3 30 -4 0 -11 -12 -14
-26z"/>
<path d="M8743 4555 c0 -27 2 -38 4 -22 2 15 2 37 0 50 -2 12 -4 0 -4 -28z"/>
<path d="M2986 4575 c-3 -9 -6 -22 -5 -28 0 -7 5 -1 10 12 5 13 8 26 5 28 -2
2 -6 -3 -10 -12z"/>
<path d="M1473 4535 c0 -22 2 -30 4 -17 2 12 2 30 0 40 -3 9 -5 -1 -4 -23z"/>
<path d="M9873 4515 c0 -27 2 -38 4 -22 2 15 2 37 0 50 -2 12 -4 0 -4 -28z"/>
<path d="M353 4500 c0 -30 2 -43 4 -27 2 15 2 39 0 55 -2 15 -4 2 -4 -28z"/>
<path d="M5931 4534 c0 -11 3 -14 6 -6 3 7 2 16 -1 19 -3 4 -6 -2 -5 -13z"/>
<path d="M4251 4524 c0 -11 3 -14 6 -6 3 7 2 16 -1 19 -3 4 -6 -2 -5 -13z"/>
<path d="M2957 4516 c-4 -10 -7 -25 -6 -34 0 -11 4 -9 10 7 5 13 8 29 6 35 -2
5 -6 2 -10 -8z"/>
<path d="M5951 4505 c1 -19 18 -51 18 -35 0 8 -4 22 -9 30 -5 8 -9 11 -9 5z"/>
<path d="M7201 4484 c0 -11 3 -14 6 -6 3 7 2 16 -1 19 -3 4 -6 -2 -5 -13z"/>
<path d="M8733 4465 c0 -22 2 -30 4 -17 2 12 2 30 0 40 -3 9 -5 -1 -4 -23z"/>
<path d="M1483 4445 c0 -22 2 -30 4 -17 2 12 2 30 0 40 -3 9 -5 -1 -4 -23z"/>
<path d="M2923 4444 c-6 -13 -8 -26 -3 -29 4 -3 11 7 14 21 9 35 4 39 -11 8z"/>
<path d="M9862 4390 c0 -19 2 -27 5 -17 2 9 2 25 0 35 -3 9 -5 1 -5 -18z"/>
<path d="M372 4380 c0 -19 2 -27 5 -17 2 9 2 25 0 35 -3 9 -5 1 -5 -18z"/>
<path d="M2901 4394 c0 -11 3 -14 6 -6 3 7 2 16 -1 19 -3 4 -6 -2 -5 -13z"/>
<path d="M8712 4380 c0 -19 2 -27 5 -17 2 9 2 25 0 35 -3 9 -5 1 -5 -18z"/>
<path d="M1502 4360 c0 -14 2 -19 5 -12 2 6 2 18 0 25 -3 6 -5 1 -5 -13z"/>
<path d="M2891 4354 c0 -11 3 -14 6 -6 3 7 2 16 -1 19 -3 4 -6 -2 -5 -13z"/>
<path d="M9843 4310 c0 -25 2 -35 4 -22 2 12 2 32 0 45 -2 12 -4 2 -4 -23z"/>
<path d="M2871 4324 c0 -11 3 -14 6 -6 3 7 2 16 -1 19 -3 4 -6 -2 -5 -13z"/>
<path d="M8702 4310 c0 -19 2 -27 5 -17 2 9 2 25 0 35 -3 9 -5 1 -5 -18z"/>
<path d="M383 4290 c0 -25 2 -35 4 -22 2 12 2 32 0 45 -2 12 -4 2 -4 -23z"/>
<path d="M1512 4290 c0 -14 2 -19 5 -12 2 6 2 18 0 25 -3 6 -5 1 -5 -13z"/>
<path d="M2841 4264 c0 -11 3 -14 6 -6 3 7 2 16 -1 19 -3 4 -6 -2 -5 -13z"/>
<path d="M8682 4240 c0 -14 2 -19 5 -12 2 6 2 18 0 25 -3 6 -5 1 -5 -13z"/>
<path d="M1532 4225 c0 -16 2 -22 5 -12 2 9 2 23 0 30 -3 6 -5 -1 -5 -18z"/>
<path d="M2820 4236 c0 -9 5 -16 10 -16 6 0 10 4 10 9 0 6 -4 13 -10 16 -5 3
-10 -1 -10 -9z"/>
<path d="M407 4170 c3 -41 9 -77 13 -80 4 -3 11 -32 15 -65 4 -33 11 -64 15
-70 4 -5 11 -30 15 -55 4 -25 11 -49 15 -55 4 -5 11 -29 15 -52 4 -24 11 -45
16 -49 5 -3 9 -14 9 -24 0 -21 25 -105 39 -130 5 -9 12 -30 15 -48 4 -17 12
-34 17 -37 5 -4 9 -14 9 -23 0 -9 7 -30 15 -46 8 -15 15 -33 15 -38 0 -6 7
-26 16 -46 8 -21 21 -50 28 -67 39 -90 52 -115 59 -115 4 0 7 -8 8 -17 0 -11
3 -13 6 -5 2 7 -9 40 -25 75 -17 34 -47 105 -68 157 -20 52 -42 109 -49 125
-20 47 -75 212 -75 225 0 7 -6 26 -14 43 -15 36 -31 93 -51 187 -8 36 -22 97
-31 135 -9 39 -20 88 -24 110 -6 28 -7 18 -3 -35z"/>
<path d="M9832 4215 c0 -16 2 -22 5 -12 2 9 2 23 0 30 -3 6 -5 -1 -5 -18z"/>
<path d="M2811 4194 c0 -11 3 -14 6 -6 3 7 2 16 -1 19 -3 4 -6 -2 -5 -13z"/>
<path d="M7350 4189 c0 -5 5 -7 10 -4 6 3 10 8 10 11 0 2 -4 4 -10 4 -5 0 -10
-5 -10 -11z"/>
<path d="M8666 4185 c-3 -8 -1 -15 4 -15 6 0 10 7 10 15 0 8 -2 15 -4 15 -2 0
-6 -7 -10 -15z"/>
<path d="M1541 4164 c0 -11 3 -14 6 -6 3 7 2 16 -1 19 -3 4 -6 -2 -5 -13z"/>
<path d="M2786 4154 c-4 -14 -5 -28 -3 -31 3 -2 8 8 11 23 4 14 5 28 3 31 -3
2 -8 -8 -11 -23z"/>
<path d="M7371 4154 c0 -11 3 -14 6 -6 3 7 2 16 -1 19 -3 4 -6 -2 -5 -13z"/>
<path d="M9812 4140 c0 -19 2 -27 5 -17 2 9 2 25 0 35 -3 9 -5 1 -5 -18z"/>
<path d="M8652 4125 c0 -16 2 -22 5 -12 2 9 2 23 0 30 -3 6 -5 -1 -5 -18z"/>
<path d="M7385 4130 c-3 -5 -1 -10 4 -10 6 0 11 5 11 10 0 6 -2 10 -4 10 -3 0
-8 -4 -11 -10z"/>
<path d="M1561 4104 c0 -11 3 -14 6 -6 3 7 2 16 -1 19 -3 4 -6 -2 -5 -13z"/>
<path d="M2761 4103 c-1 -6 -4 -20 -7 -30 -5 -17 -5 -17 6 0 6 10 9 23 6 30
-3 9 -5 9 -5 0z"/>
<path d="M7401 4094 c0 -11 3 -14 6 -6 3 7 2 16 -1 19 -3 4 -6 -2 -5 -13z"/>
<path d="M8630 4075 c0 -8 5 -15 10 -15 6 0 10 7 10 15 0 8 -4 15 -10 15 -5 0
-10 -7 -10 -15z"/>
<path d="M9802 4060 c0 -14 2 -19 5 -12 2 6 2 18 0 25 -3 6 -5 1 -5 -13z"/>
<path d="M1570 4050 c0 -5 5 -10 10 -10 6 0 10 5 10 10 0 6 -4 10 -10 10 -5 0
-10 -4 -10 -10z"/>
<path d="M8622 4020 c0 -14 2 -19 5 -12 2 6 2 18 0 25 -3 6 -5 1 -5 -13z"/>
<path d="M9782 4000 c0 -19 2 -27 5 -17 2 9 2 25 0 35 -3 9 -5 1 -5 -18z"/>
<path d="M1591 4004 c0 -11 3 -14 6 -6 3 7 2 16 -1 19 -3 4 -6 -2 -5 -13z"/>
<path d="M7451 4010 c0 -8 4 -22 9 -30 12 -18 12 -2 0 25 -6 13 -9 15 -9 5z"/>
<path d="M2700 3977 c0 -10 -7 -25 -15 -33 -8 -9 -15 -23 -14 -32 0 -14 2 -14
6 -2 3 8 14 24 24 35 13 14 15 25 9 35 -8 13 -10 12 -10 -3z"/>
<path d="M8596 3954 c-4 -20 -5 -38 -3 -40 3 -3 8 11 11 32 4 20 5 38 3 40 -3
3 -8 -11 -11 -32z"/>
<path d="M1611 3954 c0 -11 3 -14 6 -6 3 7 2 16 -1 19 -3 4 -6 -2 -5 -13z"/>
<path d="M7480 3950 c0 -17 17 -47 23 -40 2 3 -2 16 -10 30 -7 14 -13 18 -13
10z"/>
<path d="M8571 3884 c0 -11 3 -14 6 -6 3 7 2 16 -1 19 -3 4 -6 -2 -5 -13z"/>
<path d="M9752 3880 c0 -14 2 -19 5 -12 2 6 2 18 0 25 -3 6 -5 1 -5 -13z"/>
<path d="M2645 3860 c-4 -17 -5 -34 -2 -36 2 -3 7 10 11 27 8 42 0 50 -9 9z"/>
<path d="M1641 3864 c0 -11 3 -14 6 -6 3 7 2 16 -1 19 -3 4 -6 -2 -5 -13z"/>
<path d="M8561 3834 c0 -11 3 -14 6 -6 3 7 2 16 -1 19 -3 4 -6 -2 -5 -13z"/>
<path d="M1651 3824 c0 -11 3 -14 6 -6 3 7 2 16 -1 19 -3 4 -6 -2 -5 -13z"/>
<path d="M9730 3815 c0 -8 2 -15 4 -15 2 0 6 7 10 15 3 8 1 15 -4 15 -6 0 -10
-7 -10 -15z"/>
<path d="M8541 3794 c0 -11 3 -14 6 -6 3 7 2 16 -1 19 -3 4 -6 -2 -5 -13z"/>
<path d="M1671 3784 c0 -11 3 -14 6 -6 3 7 2 16 -1 19 -3 4 -6 -2 -5 -13z"/>
<path d="M9722 3770 c0 -14 2 -19 5 -12 2 6 2 18 0 25 -3 6 -5 1 -5 -13z"/>
<path d="M2584 3735 c-6 -13 -8 -28 -4 -35 4 -7 10 2 14 21 8 40 4 45 -10 14z"/>
<path d="M8510 3723 c0 -10 -7 -27 -15 -37 -8 -11 -15 -28 -15 -38 0 -10 -4
-18 -9 -18 -5 0 -13 -14 -16 -32 -4 -17 -14 -38 -21 -46 -23 -22 -16 -61 21
-122 19 -32 35 -63 35 -69 0 -6 5 -11 10 -11 6 0 10 7 10 15 0 8 -5 15 -11 15
-5 0 -7 5 -4 11 4 5 -3 19 -15 29 -12 10 -19 23 -16 28 3 5 -2 18 -12 28 -9
10 -17 28 -17 39 0 22 21 49 32 42 5 -3 9 11 10 31 1 20 6 38 12 40 5 2 7 10
4 17 -3 8 2 22 11 30 9 9 16 27 16 41 0 27 -10 34 -10 7z"/>
<path d="M9701 3724 c0 -11 3 -14 6 -6 3 7 2 16 -1 19 -3 4 -6 -2 -5 -13z"/>
<path d="M2561 3684 c0 -11 3 -14 6 -6 3 7 2 16 -1 19 -3 4 -6 -2 -5 -13z"/>
<path d="M1710 3680 c0 -5 5 -10 11 -10 5 0 7 5 4 10 -3 6 -8 10 -11 10 -2 0
-4 -4 -4 -10z"/>
<path d="M9691 3674 c0 -11 3 -14 6 -6 3 7 2 16 -1 19 -3 4 -6 -2 -5 -13z"/>
<path d="M2540 3650 c0 -5 5 -10 10 -10 6 0 10 5 10 10 0 6 -4 10 -10 10 -5 0
-10 -4 -10 -10z"/>
<path d="M9671 3624 c0 -11 3 -14 6 -6 3 7 2 16 -1 19 -3 4 -6 -2 -5 -13z"/>
<path d="M2530 3618 c0 -9 -6 -18 -12 -21 -10 -3 -10 -8 -2 -16 9 -10 13 -6
18 14 4 15 5 30 1 33 -3 3 -5 -2 -5 -10z"/>
<path d="M1751 3605 c1 -19 18 -51 18 -35 0 8 -4 22 -9 30 -5 8 -9 11 -9 5z"/>
<path d="M9661 3584 c0 -11 3 -14 6 -6 3 7 2 16 -1 19 -3 4 -6 -2 -5 -13z"/>
<path d="M2501 3554 c0 -11 3 -14 6 -6 3 7 2 16 -1 19 -3 4 -6 -2 -5 -13z"/>
<path d="M9642 3540 c0 -14 2 -19 5 -12 2 6 2 18 0 25 -3 6 -5 1 -5 -13z"/>
<path d="M1775 3540 c3 -5 8 -10 11 -10 2 0 4 5 4 10 0 6 -5 10 -11 10 -5 0
-7 -4 -4 -10z"/>
<path d="M8486 3517 c3 -10 9 -15 12 -12 3 3 0 11 -7 18 -10 9 -11 8 -5 -6z"/>
<path d="M1791 3504 c0 -11 3 -14 6 -6 3 7 2 16 -1 19 -3 4 -6 -2 -5 -13z"/>
<path d="M1811 3480 c0 -8 4 -22 9 -30 12 -18 12 -2 0 25 -6 13 -9 15 -9 5z"/>
<path d="M2450 3461 c0 -6 5 -13 10 -16 6 -3 10 1 10 9 0 9 -4 16 -10 16 -5 0
-10 -4 -10 -9z"/>
<path d="M9611 3454 c0 -11 3 -14 6 -6 3 7 2 16 -1 19 -3 4 -6 -2 -5 -13z"/>
<path d="M1841 3420 c0 -8 4 -22 9 -30 12 -18 12 -2 0 25 -6 13 -9 15 -9 5z"/>
<path d="M9595 3420 c-3 -5 -1 -10 4 -10 6 0 11 5 11 10 0 6 -2 10 -4 10 -3 0
-8 -4 -11 -10z"/>
<path d="M2416 3384 c-4 -14 -5 -28 -3 -31 3 -2 8 8 11 23 4 14 5 28 3 31 -3
2 -8 -8 -11 -23z"/>
<path d="M1871 3365 c1 -19 18 -51 18 -35 0 8 -4 22 -9 30 -5 8 -9 11 -9 5z"/>
<path d="M6496 3328 c8 -18 20 -45 27 -60 6 -16 15 -28 18 -28 4 0 10 -13 14
-30 4 -16 11 -30 16 -30 5 0 9 -7 9 -15 0 -17 60 -137 73 -146 5 -3 8 -8 7
-10 -1 -2 3 -15 8 -28 6 -17 11 -21 16 -12 5 7 -3 29 -18 51 -14 22 -26 44
-26 50 0 5 -4 10 -9 10 -5 0 -12 15 -15 34 -4 19 -10 36 -14 38 -4 2 -22 35
-40 73 -19 39 -38 77 -43 85 -5 8 -12 23 -15 33 -4 9 -10 17 -15 17 -4 0 -1
-15 7 -32z"/>
<path d="M8516 3351 c-4 -7 -5 -15 -2 -18 9 -9 19 4 14 18 -4 11 -6 11 -12 0z"/>
<path d="M2391 3334 c0 -11 3 -14 6 -6 3 7 2 16 -1 19 -3 4 -6 -2 -5 -13z"/>
<path d="M8525 3319 c-4 -6 -5 -13 -2 -16 7 -7 27 6 27 18 0 12 -17 12 -25 -2z"/>
<path d="M1901 3304 c0 -11 3 -14 6 -6 3 7 2 16 -1 19 -3 4 -6 -2 -5 -13z"/>
<path d="M9551 3304 c0 -11 3 -14 6 -6 3 7 2 16 -1 19 -3 4 -6 -2 -5 -13z"/>
<path d="M2375 3300 c-3 -5 -1 -10 4 -10 6 0 11 5 11 10 0 6 -2 10 -4 10 -3 0
-8 -4 -11 -10z"/>
<path d="M8540 3290 c0 -5 14 -32 30 -58 17 -27 30 -55 30 -62 0 -10 3 -10 15
0 15 13 11 35 -6 25 -5 -4 -9 -1 -9 6 0 20 -41 99 -51 99 -5 0 -9 -4 -9 -10z"/>
<path d="M7821 3280 c0 -8 4 -22 9 -30 12 -18 12 -2 0 25 -6 13 -9 15 -9 5z"/>
<path d="M2361 3264 c0 -11 3 -14 6 -6 3 7 2 16 -1 19 -3 4 -6 -2 -5 -13z"/>
<path d="M9521 3234 c0 -11 3 -14 6 -6 3 7 2 16 -1 19 -3 4 -6 -2 -5 -13z"/>
<path d="M1945 3230 c-3 -5 -1 -10 4 -10 6 0 11 5 11 10 0 6 -2 10 -4 10 -3 0
-8 -4 -11 -10z"/>
<path d="M2334 3210 c-4 -16 -10 -30 -14 -30 -5 0 -11 -13 -15 -30 -4 -16 -10
-30 -15 -30 -13 0 -22 -52 -11 -63 8 -8 11 -3 11 15 0 14 9 37 20 51 11 14 20
32 20 40 0 9 4 17 8 19 14 5 24 58 12 58 -6 0 -13 -13 -16 -30z"/>
<path d="M7851 3214 c0 -11 3 -14 6 -6 3 7 2 16 -1 19 -3 4 -6 -2 -5 -13z"/>
<path d="M3631 3174 c0 -11 3 -14 6 -6 3 7 2 16 -1 19 -3 4 -6 -2 -5 -13z"/>
<path d="M7871 3185 c1 -19 18 -51 18 -35 0 8 -4 22 -9 30 -5 8 -9 11 -9 5z"/>
<path d="M8620 3158 c0 -21 17 -41 29 -34 7 5 7 13 -2 26 -13 23 -27 26 -27 8z"/>
<path d="M9471 3134 c0 -11 3 -14 6 -6 3 7 2 16 -1 19 -3 4 -6 -2 -5 -13z"/>
<path d="M754 3125 c-5 -11 -3 -20 4 -23 7 -2 12 -8 12 -14 0 -8 34 -86 47
-107 1 -1 7 0 14 5 9 5 9 10 -2 18 -8 6 -15 16 -16 21 -1 6 -13 35 -27 64 -20
45 -26 51 -32 36z"/>
<path d="M2010 3131 c0 -6 4 -13 10 -16 6 -3 7 1 4 9 -7 18 -14 21 -14 7z"/>
<path d="M7901 3130 c0 -8 4 -22 9 -30 12 -18 12 -2 0 25 -6 13 -9 15 -9 5z"/>
<path d="M8650 3108 c0 -20 37 -71 43 -60 4 5 -2 18 -12 28 -9 11 -16 25 -13
32 2 6 -1 12 -7 12 -6 0 -11 -6 -11 -12z"/>
<path d="M3580 3080 c0 -5 5 -10 11 -10 5 0 7 5 4 10 -3 6 -8 10 -11 10 -2 0
-4 -4 -4 -10z"/>
<path d="M9441 3074 c0 -11 3 -14 6 -6 3 7 2 16 -1 19 -3 4 -6 -2 -5 -13z"/>
<path d="M2066 3057 c3 -10 9 -15 12 -12 3 3 0 11 -7 18 -10 9 -11 8 -5 -6z"/>
<path d="M7931 3065 c1 -19 18 -51 18 -35 0 8 -4 22 -9 30 -5 8 -9 11 -9 5z"/>
<path d="M2250 3050 c0 -8 -3 -25 -6 -37 -4 -13 -2 -23 4 -23 14 0 23 41 12
59 -8 14 -9 14 -10 1z"/>
<path d="M3571 3044 c0 -11 3 -14 6 -6 3 7 2 16 -1 19 -3 4 -6 -2 -5 -13z"/>
<path d="M9420 3051 c0 -5 5 -13 10 -16 6 -3 10 -2 10 4 0 5 -4 13 -10 16 -5
3 -10 2 -10 -4z"/>
<path d="M8696 3025 c-3 -8 -1 -15 4 -15 6 0 10 -7 10 -16 0 -8 4 -13 9 -10 5
4 12 -8 16 -25 5 -24 10 -28 19 -19 8 10 8 14 -1 17 -7 3 -13 10 -13 18 0 7
-7 18 -15 25 -8 7 -13 16 -10 20 3 5 1 11 -4 14 -5 3 -11 -1 -15 -9z"/>
<path d="M9400 3035 c0 -5 5 -17 10 -25 5 -8 10 -10 10 -5 0 6 -5 17 -10 25
-5 8 -10 11 -10 5z"/>
<path d="M2221 2974 c0 -11 3 -14 6 -6 3 7 2 16 -1 19 -3 4 -6 -2 -5 -13z"/>
<path d="M830 2964 c0 -8 5 -12 10 -9 6 3 10 10 10 16 0 5 -4 9 -10 9 -5 0
-10 -7 -10 -16z"/>
<path d="M2125 2959 c-4 -6 -5 -12 -2 -15 2 -3 7 2 10 11 7 17 1 20 -8 4z"/>
<path d="M6690 2941 c0 -11 6 -26 13 -33 8 -7 17 -26 21 -41 3 -15 11 -27 16
-27 12 0 13 14 3 24 -5 4 -9 11 -9 14 -6 28 -18 52 -26 52 -5 0 -7 4 -3 9 3 5
1 12 -5 16 -5 3 -10 -3 -10 -14z"/>
<path d="M848 2944 c-2 -5 1 -20 8 -34 8 -14 13 -18 13 -10 -1 24 -15 55 -21
44z"/>
<path d="M7990 2945 c0 -5 5 -17 10 -25 5 -8 10 -10 10 -5 0 6 -5 17 -10 25
-5 8 -10 11 -10 5z"/>
<path d="M8761 2918 c0 -9 6 -23 14 -32 8 -8 15 -19 15 -25 0 -5 6 -16 13 -23
6 -7 23 -35 37 -61 24 -46 39 -55 48 -27 3 9 -1 11 -12 7 -9 -4 -14 -3 -11 2
3 5 1 12 -5 16 -6 4 -8 10 -5 15 3 5 -2 13 -11 18 -9 5 -15 11 -14 13 4 12
-14 38 -23 32 -6 -4 -8 0 -4 10 3 10 2 17 -3 17 -6 0 -10 7 -10 16 0 8 -4 13
-9 9 -5 -3 -12 3 -14 12 -4 16 -5 16 -6 1z"/>
<path d="M8020 2890 c0 -17 17 -47 23 -40 2 3 -2 16 -10 30 -7 14 -13 18 -13
10z"/>
<path d="M877 2882 c-3 -4 1 -15 8 -25 8 -12 15 -14 20 -8 3 6 0 18 -9 26 -8
8 -17 12 -19 7z"/>
<path d="M3475 2850 c3 -5 8 -10 11 -10 2 0 4 5 4 10 0 6 -5 10 -11 10 -5 0
-7 -4 -4 -10z"/>
<path d="M910 2833 c0 -23 48 -104 56 -92 3 6 2 14 -3 18 -5 3 -13 13 -17 21
-17 37 -36 64 -36 53z"/>
<path d="M8051 2824 c0 -11 3 -14 6 -6 3 7 2 16 -1 19 -3 4 -6 -2 -5 -13z"/>
<path d="M6751 2823 c-2 -19 52 -119 57 -104 2 7 -1 17 -8 21 -6 4 -12 11 -12
16 -2 23 -11 44 -18 44 -5 0 -11 8 -13 18 -3 9 -5 12 -6 5z"/>
<path d="M3440 2790 c0 -5 5 -10 10 -10 6 0 10 5 10 10 0 6 -4 10 -10 10 -5 0
-10 -4 -10 -10z"/>
<path d="M8065 2790 c3 -5 8 -10 11 -10 2 0 4 5 4 10 0 6 -5 10 -11 10 -5 0
-7 -4 -4 -10z"/>
<path d="M3431 2754 c0 -11 3 -14 6 -6 3 7 2 16 -1 19 -3 4 -6 -2 -5 -13z"/>
<path d="M9250 2740 c0 -5 5 -10 11 -10 5 0 7 5 4 10 -3 6 -8 10 -11 10 -2 0
-4 -4 -4 -10z"/>
<path d="M976 2732 c-7 -12 5 -52 15 -52 5 0 9 -4 9 -10 0 -5 20 -39 45 -76
25 -36 45 -70 45 -77 0 -8 4 -7 12 1 10 10 10 15 -1 21 -8 5 -10 14 -6 22 6 9
3 11 -8 6 -16 -6 -23 8 -18 36 0 4 -6 7 -15 7 -8 0 -13 4 -9 9 3 5 1 12 -5 16
-6 4 -7 11 -4 17 5 7 1 9 -9 5 -11 -4 -14 -2 -10 9 3 7 0 14 -6 14 -6 0 -11 7
-11 15 0 8 -4 15 -10 15 -5 0 -7 7 -4 15 6 16 -1 21 -10 7z"/>
<path d="M3411 2724 c0 -11 3 -14 6 -6 3 7 2 16 -1 19 -3 4 -6 -2 -5 -13z"/>
<path d="M8880 2714 c0 -8 5 -12 10 -9 6 3 10 10 10 16 0 5 -4 9 -10 9 -5 0
-10 -7 -10 -16z"/>
<path d="M8905 2700 c-8 -13 3 -50 15 -50 5 0 11 -13 15 -30 4 -16 10 -30 15
-30 5 0 12 -10 16 -22 9 -30 31 -51 39 -38 3 5 1 10 -4 10 -6 0 -11 9 -11 21
0 11 -4 18 -9 14 -12 -7 -25 31 -15 47 5 8 2 9 -9 5 -11 -4 -14 -2 -10 9 3 7
0 14 -6 14 -6 0 -11 7 -11 16 0 8 -5 12 -11 8 -8 -4 -9 0 -4 15 7 22 1 29 -10
11z"/>
<path d="M6811 2689 c0 -9 6 -22 14 -29 10 -9 15 -9 15 -1 0 6 -4 11 -9 11 -5
0 -12 8 -14 18 -4 14 -5 14 -6 1z"/>
<path d="M3381 2664 c0 -11 3 -14 6 -6 3 7 2 16 -1 19 -3 4 -6 -2 -5 -13z"/>
<path d="M3371 2624 c0 -11 3 -14 6 -6 3 7 2 16 -1 19 -3 4 -6 -2 -5 -13z"/>
<path d="M6840 2633 c0 -13 31 -75 42 -83 3 -3 10 -18 13 -33 4 -15 11 -27 15
-27 4 0 11 -16 14 -35 4 -19 11 -35 15 -35 5 0 12 -12 16 -27 3 -14 13 -36 21
-47 14 -20 14 -20 12 8 -1 16 -8 30 -15 33 -6 3 -15 18 -18 34 -4 16 -11 29
-16 29 -5 0 -9 7 -9 15 0 8 -9 32 -20 52 -11 21 -20 43 -20 50 0 7 -4 13 -10
13 -5 0 -10 6 -10 13 -1 15 -30 55 -30 40z"/>
<path d="M9176 2617 c3 -10 9 -15 12 -12 3 3 0 11 -7 18 -10 9 -11 8 -5 -6z"/>
<path d="M3351 2594 c0 -11 3 -14 6 -6 3 7 2 16 -1 19 -3 4 -6 -2 -5 -13z"/>
<path d="M8191 2544 c0 -11 3 -14 6 -6 3 7 2 16 -1 19 -3 4 -6 -2 -5 -13z"/>
<path d="M9126 2535 c-9 -26 -7 -32 5 -12 6 10 9 21 6 23 -2 3 -7 -2 -11 -11z"/>
<path d="M1117 2513 c-10 -10 -8 -20 6 -35 6 -7 28 -36 47 -65 33 -50 50 -59
50 -25 0 14 -2 14 -9 3 -7 -11 -10 -8 -13 13 -2 14 -7 27 -13 28 -16 3 -33 22
-28 31 3 4 -4 16 -16 26 -11 10 -18 21 -14 25 3 3 4 6 1 6 -2 0 -8 -3 -11 -7z"/>
<path d="M3305 2500 c3 -5 8 -10 11 -10 2 0 4 5 4 10 0 6 -5 10 -11 10 -5 0
-7 -4 -4 -10z"/>
<path d="M9000 2504 c0 -10 28 -33 33 -27 3 3 0 12 -8 19 -14 15 -25 18 -25 8z"/>
<path d="M8271 2400 c0 -8 4 -22 9 -30 12 -18 12 -2 0 25 -6 13 -9 15 -9 5z"/>
<path d="M1226 2361 c-4 -6 -3 -18 2 -27 8 -14 10 -14 15 -2 7 19 -8 44 -17
29z"/>
<path d="M8301 2340 c0 -8 4 -24 9 -35 5 -13 9 -14 9 -5 0 8 -4 24 -9 35 -5
13 -9 14 -9 5z"/>
<path d="M1248 2318 c-4 -11 12 -35 48 -72 6 -6 15 -19 20 -29 10 -17 11 -17
25 -1 13 16 12 17 -5 11 -14 -6 -17 -4 -12 10 4 10 4 14 0 11 -9 -9 -37 20
-30 31 7 11 -19 33 -28 24 -4 -4 -4 0 0 10 3 9 2 17 -4 17 -6 0 -12 -5 -14
-12z"/>
<path d="M6996 2322 c-4 -7 0 -22 8 -34 17 -24 21 -9 7 26 -5 14 -10 16 -15 8z"/>
<path d="M7032 2255 c-1 -33 13 -61 23 -46 4 7 3 16 -3 20 -5 3 -12 15 -15 26
l-5 20 0 -20z"/>
<path d="M8340 2239 c0 -5 5 -7 10 -4 6 3 10 8 10 11 0 2 -4 4 -10 4 -5 0 -10
-5 -10 -11z"/>
<path d="M8361 2214 c0 -11 3 -14 6 -6 3 7 2 16 -1 19 -3 4 -6 -2 -5 -13z"/>
<path d="M1360 2180 c0 -5 5 -10 11 -10 5 0 7 -5 4 -10 -8 -13 42 -66 52 -57
3 4 1 7 -6 7 -7 0 -11 6 -8 14 3 8 -5 26 -18 40 -26 28 -35 32 -35 16z m40
-35 c11 -13 10 -14 -4 -9 -9 3 -16 10 -16 15 0 13 6 11 20 -6z"/>
<path d="M8370 2179 c0 -5 5 -7 10 -4 6 3 10 8 10 11 0 2 -4 4 -10 4 -5 0 -10
-5 -10 -11z"/>
<path d="M8391 2154 c0 -11 3 -14 6 -6 3 7 2 16 -1 19 -3 4 -6 -2 -5 -13z"/>
<path d="M7091 2130 c0 -8 4 -22 9 -30 12 -18 12 -2 0 25 -6 13 -9 15 -9 5z"/>
<path d="M8400 2120 c0 -5 5 -10 10 -10 6 0 10 5 10 10 0 6 -4 10 -10 10 -5 0
-10 -4 -10 -10z"/>
<path d="M3122 2100 c0 -14 2 -19 5 -12 2 6 2 18 0 25 -3 6 -5 1 -5 -13z"/>
<path d="M1450 2061 c0 -6 4 -13 10 -16 6 -3 7 1 4 9 -7 18 -14 21 -14 7z"/>
<path d="M8430 2060 c0 -5 5 -10 10 -10 6 0 10 5 10 10 0 6 -4 10 -10 10 -5 0
-10 -4 -10 -10z"/>
<path d="M1486 2032 c-2 -4 -1 -14 4 -22 7 -11 9 -9 7 8 -1 24 -3 26 -11 14z"/>
<path d="M6935 1990 c-16 -7 -17 -9 -3 -9 9 -1 20 4 23 9 7 11 7 11 -20 0z"/>
<path d="M1624 1878 c-4 -7 -4 -10 1 -6 4 4 15 2 24 -5 14 -11 14 -10 2 6 -16
20 -18 21 -27 5z"/>
<path d="M3598 1813 c7 -3 16 -2 19 1 4 3 -2 6 -13 5 -11 0 -14 -3 -6 -6z"/>
<path d="M3668 1783 c7 -3 16 -2 19 1 4 3 -2 6 -13 5 -11 0 -14 -3 -6 -6z"/>
<path d="M1780 1716 c0 -2 7 -7 16 -10 8 -3 12 -2 9 4 -6 10 -25 14 -25 6z"/>
<path d="M3868 1703 c7 -3 16 -2 19 1 4 3 -2 6 -13 5 -11 0 -14 -3 -6 -6z"/>
<path d="M3958 1673 c7 -3 16 -2 19 1 4 3 -2 6 -13 5 -11 0 -14 -3 -6 -6z"/>
<path d="M8641 1670 c0 -8 4 -24 9 -35 5 -13 9 -14 9 -5 0 8 -4 24 -9 35 -5
13 -9 14 -9 5z"/>
<path d="M4158 1613 c7 -3 16 -2 19 1 4 3 -2 6 -13 5 -11 0 -14 -3 -6 -6z"/>
<path d="M8671 1610 c1 -24 15 -55 21 -44 2 5 -1 20 -8 34 -8 14 -13 18 -13
10z"/>
<path d="M1946 1569 c2 -4 13 -7 24 -6 23 2 17 10 -10 12 -10 1 -17 -2 -14 -6z"/>
<path d="M4348 1563 c6 -2 18 -2 25 0 6 3 1 5 -13 5 -14 0 -19 -2 -12 -5z"/>
<path d="M4423 1553 c9 -2 23 -2 30 0 6 3 -1 5 -18 5 -16 0 -22 -2 -12 -5z"/>
<path d="M5748 1553 c6 -2 18 -2 25 0 6 3 1 5 -13 5 -14 0 -19 -2 -12 -5z"/>
<path d="M8701 1544 c0 -11 3 -14 6 -6 3 7 2 16 -1 19 -3 4 -6 -2 -5 -13z"/>
<path d="M1994 1537 c-4 -7 -4 -9 1 -5 4 4 14 3 22 -3 8 -7 13 -8 13 -1 0 15
-28 23 -36 9z"/>
<path d="M4513 1533 c9 -2 25 -2 35 0 9 3 1 5 -18 5 -19 0 -27 -2 -17 -5z"/>
<path d="M2034 1508 c-5 -8 -2 -9 10 -5 14 6 17 3 12 -10 -6 -14 -4 -15 5 -6
12 12 5 33 -11 33 -5 0 -12 -5 -16 -12z"/>
<path d="M8710 1510 c0 -5 5 -10 10 -10 6 0 10 -7 10 -17 0 -9 3 -14 6 -10 8
8 -5 47 -17 47 -5 0 -9 -4 -9 -10z"/>
<path d="M8746 1451 c-4 -6 -2 -11 3 -11 6 0 11 -8 12 -17 0 -10 3 -13 5 -6 8
18 -11 49 -20 34z"/>
<path d="M2110 1443 c0 -19 21 -27 33 -13 9 10 9 11 -2 5 -8 -4 -17 -2 -22 6
-6 9 -9 10 -9 2z"/>
<path d="M2180 1376 c0 -2 7 -7 16 -10 8 -3 12 -2 9 4 -6 10 -25 14 -25 6z"/>
<path d="M2250 1333 c0 -19 18 -25 37 -13 17 11 16 11 -1 5 -11 -3 -23 0 -28
7 -5 9 -8 10 -8 1z"/>
<path d="M2360 1260 c-9 -6 -10 -10 -3 -10 6 0 15 5 18 10 8 12 4 12 -15 0z"/>
<path d="M8901 1144 c0 -11 3 -14 6 -6 3 7 2 16 -1 19 -3 4 -6 -2 -5 -13z"/>
<path d="M8931 1084 c0 -11 3 -14 6 -6 3 7 2 16 -1 19 -3 4 -6 -2 -5 -13z"/>
<path d="M2790 1000 c-9 -6 -10 -10 -3 -10 6 0 15 5 18 10 8 12 4 12 -15 0z"/>
<path d="M7695 970 c14 -22 25 -44 25 -50 0 -6 4 -8 10 -5 10 6 -6 43 -25 57
-5 4 -6 8 -2 8 9 0 -18 30 -27 30 -4 0 5 -18 19 -40z"/>
<path d="M7746 885 c2 -11 4 -23 4 -27 0 -5 6 -8 14 -8 9 0 12 7 9 20 -3 11
-9 18 -13 15 -5 -3 -10 0 -13 7 -2 7 -3 4 -1 -7z"/>
<path d="M9041 878 c-1 -13 -10 -18 -33 -19 -28 -1 -27 -3 12 -9 46 -8 63 -4
44 8 -6 4 -14 14 -17 22 -4 12 -6 11 -6 -2z"/>
<path d="M7833 853 c9 -2 23 -2 30 0 6 3 -1 5 -18 5 -16 0 -22 -2 -12 -5z"/>
<path d="M6928 773 c7 -3 16 -2 19 1 4 3 -2 6 -13 5 -11 0 -14 -3 -6 -6z"/>
<path d="M3308 743 c7 -3 16 -2 19 1 4 3 -2 6 -13 5 -11 0 -14 -3 -6 -6z"/>
<path d="M6848 743 c7 -3 16 -2 19 1 4 3 -2 6 -13 5 -11 0 -14 -3 -6 -6z"/>
<path d="M3388 713 c7 -3 16 -2 19 1 4 3 -2 6 -13 5 -11 0 -14 -3 -6 -6z"/>
<path d="M6768 713 c7 -3 16 -2 19 1 4 3 -2 6 -13 5 -11 0 -14 -3 -6 -6z"/>
<path d="M3428 693 c7 -3 16 -2 19 1 4 3 -2 6 -13 5 -11 0 -14 -3 -6 -6z"/>
<path d="M6728 693 c7 -3 16 -2 19 1 4 3 -2 6 -13 5 -11 0 -14 -3 -6 -6z"/>
<path d="M3518 663 c7 -3 16 -2 19 1 4 3 -2 6 -13 5 -11 0 -14 -3 -6 -6z"/>
<path d="M6638 663 c7 -3 16 -2 19 1 4 3 -2 6 -13 5 -11 0 -14 -3 -6 -6z"/>
<path d="M3568 653 c7 -3 16 -2 19 1 4 3 -2 6 -13 5 -11 0 -14 -3 -6 -6z"/>
<path d="M3608 633 c7 -3 16 -2 19 1 4 3 -2 6 -13 5 -11 0 -14 -3 -6 -6z"/>
<path d="M6548 633 c7 -3 16 -2 19 1 4 3 -2 6 -13 5 -11 0 -14 -3 -6 -6z"/>
<path d="M3708 603 c7 -3 16 -2 19 1 4 3 -2 6 -13 5 -11 0 -14 -3 -6 -6z"/>
<path d="M6448 603 c7 -3 16 -2 19 1 4 3 -2 6 -13 5 -11 0 -14 -3 -6 -6z"/>
<path d="M6348 573 c7 -3 16 -2 19 1 4 3 -2 6 -13 5 -11 0 -14 -3 -6 -6z"/>
<path d="M3928 543 c6 -2 18 -2 25 0 6 3 1 5 -13 5 -14 0 -19 -2 -12 -5z"/>
<path d="M3993 523 c9 -2 23 -2 30 0 6 3 -1 5 -18 5 -16 0 -22 -2 -12 -5z"/>
<path d="M6148 523 c6 -2 18 -2 25 0 6 3 1 5 -13 5 -14 0 -19 -2 -12 -5z"/>
<path d="M4068 513 c7 -3 16 -2 19 1 4 3 -2 6 -13 5 -11 0 -14 -3 -6 -6z"/>
<path d="M4133 493 c9 -2 23 -2 30 0 6 3 -1 5 -18 5 -16 0 -22 -2 -12 -5z"/>
<path d="M6008 493 c6 -2 18 -2 25 0 6 3 1 5 -13 5 -14 0 -19 -2 -12 -5z"/>
<path d="M4213 483 c9 -2 25 -2 35 0 9 3 1 5 -18 5 -19 0 -27 -2 -17 -5z"/>
<path d="M5938 483 c7 -3 16 -2 19 1 4 3 -2 6 -13 5 -11 0 -14 -3 -6 -6z"/>
<path d="M4303 463 c9 -2 25 -2 35 0 9 3 1 5 -18 5 -19 0 -27 -2 -17 -5z"/>
<path d="M5833 463 c9 -2 25 -2 35 0 9 3 1 5 -18 5 -19 0 -27 -2 -17 -5z"/>
<path d="M4408 453 c7 -3 16 -2 19 1 4 3 -2 6 -13 5 -11 0 -14 -3 -6 -6z"/>
<path d="M5748 453 c7 -3 16 -2 19 1 4 3 -2 6 -13 5 -11 0 -14 -3 -6 -6z"/>
<path d="M4528 433 c12 -2 32 -2 45 0 12 2 2 4 -23 4 -25 0 -35 -2 -22 -4z"/>
<path d="M5583 433 c15 -2 37 -2 50 0 12 2 0 4 -28 4 -27 0 -38 -2 -22 -4z"/>
<path d="M4685 420 c-4 -6 11 -10 41 -10 54 0 55 4 2 14 -21 4 -39 2 -43 -4z"/>
<path d="M5395 420 c-25 -6 -20 -8 28 -9 32 0 57 3 57 9 0 11 -40 11 -85 0z"/>
<path d="M4983 403 c43 -2 110 -2 150 0 40 1 5 3 -78 3 -82 0 -115 -2 -72 -3z"/>
</g>
</svg>
